<svg width="18" height="18" fill="none" xmlns="http://www.w3.org/2000/svg"><path d="M9 1.25A7.75 7.75 0 0 0 1.25 9v4A3.75 3.75 0 0 0 5 16.75h4a7.75 7.75 0 0 0 0-15.5Z" fill="#FF4A4A" stroke="#fff" stroke-width="1.5"/><path d="M9.112 5.22c.69 0 1.26.2 1.71.6.44.4.66.91.66 1.55 0 .62-.24 1.18-.7 1.69-.28.3-.78.68-1.48 1.15-.73.48-1.17.9-1.33 1.26h3.52v1.03h-4.98c0-.73.23-1.36.71-1.9.26-.3.81-.74 1.64-1.31.46-.32.78-.59.98-.8.31-.35.47-.73.47-1.13 0-.39-.11-.68-.31-.87-.21-.19-.52-.28-.93-.28-.44 0-.77.15-.99.45-.22.28-.34.71-.36 1.27h-1.17c.01-.8.24-1.44.7-1.93.47-.52 1.09-.78 1.86-.78Z" fill="#fff"/></svg>