<svg width="53" height="27" fill="none" xmlns="http://www.w3.org/2000/svg"><rect x=".5" y=".5" width="52" height="26" rx="13" fill="url('#paint0_linear_1648_489')"/><rect x=".5" y=".5" width="52" height="26" rx="13" fill="url('#paint1_linear_1648_489')"/><path d="M29.308 19h-2.896l1.36-7.68c-.256.416-.725.816-1.408 1.2a4.312 4.312 0 0 1-2.144.576l-.208-2.688c1.003 0 1.941-.304 2.816-.912.875-.619 1.413-1.29 1.616-2.016h2.88L29.308 19ZM37.77 7.368c2.517 0 3.776 1.13 3.776 3.392 0 .416-.043.875-.128 1.376l-.384 2.24c-.277 1.632-.853 2.848-1.728 3.648-.864.8-2.07 1.2-3.616 1.2-1.536 0-2.597-.395-3.184-1.184-.395-.544-.592-1.28-.592-2.208 0-.448.042-.933.128-1.456l.384-2.24c.554-3.179 2.336-4.768 5.344-4.768Zm-2.944 7.968c0 .939.432 1.408 1.296 1.408.533 0 .965-.176 1.296-.528.341-.352.592-.987.752-1.904l.368-2.112c.064-.352.096-.656.096-.912 0-.96-.427-1.44-1.28-1.44-1.088.021-1.77.805-2.048 2.352l-.384 2.112a6.525 6.525 0 0 0-.096 1.024ZM15.072 18.512l.553-3.096H12.6l.503-2.832h3.024l.529-2.976h2.831l-.527 2.976h3.048l-.505 2.832h-3.048l-.552 3.096h-2.832Z" fill="#fff"/><defs><linearGradient id="paint0_linear_1648_489" x1="-.609" y1="13.5" x2="50.905" y2="13.5" gradientUnits="userSpaceOnUse"><stop stop-color="#FF1D46"/><stop offset=".516" stop-color="#F24C00"/><stop offset="1" stop-color="#FF6518"/></linearGradient><linearGradient id="paint1_linear_1648_489" x1=".5" y1=".5" x2="53.5" y2="25.5" gradientUnits="userSpaceOnUse"><stop stop-color="#47CF3E"/><stop offset="1" stop-color="#3BB610"/></linearGradient></defs></svg>