<svg width="53" height="27" fill="none" xmlns="http://www.w3.org/2000/svg"><rect x=".5" y=".5" width="52" height="26" rx="13" fill="url('#paint0_linear_1648_445')"/><rect x=".5" y=".5" width="52" height="26" rx="13" fill="url('#paint1_linear_1648_445')"/><path d="M30.854 15.816a.82.82 0 0 0 .32.672c.224.17.581.256 1.072.256.49 0 .901-.155 1.232-.464.341-.32.512-.715.512-1.184 0-.47-.123-.837-.368-1.104a1.106 1.106 0 0 0-.88-.416c-.63 0-1.115.139-1.456.416l-.176.144h-2.736l1.168-6.656h7.824l-.448 2.512h-5.104l-.272 1.584c.469-.245 1.173-.368 2.112-.368.949 0 1.728.293 2.336.88.618.587.928 1.381.928 2.384 0 1.408-.427 2.555-1.28 3.44-.854.875-2.091 1.312-3.712 1.312-1.622 0-2.736-.299-3.344-.896-.448-.437-.672-1.05-.672-1.84 0-.277.026-.576.08-.896h2.88c-.011.075-.016.15-.016.224ZM19.073 18.512l.552-3.096H16.6l.504-2.832h3.023l.529-2.976h2.831l-.527 2.976h3.048l-.505 2.832h-3.048l-.552 3.096h-2.831Z" fill="#fff"/><defs><linearGradient id="paint0_linear_1648_445" x1="-.609" y1="13.5" x2="50.905" y2="13.5" gradientUnits="userSpaceOnUse"><stop stop-color="#FF1D46"/><stop offset=".516" stop-color="#F24C00"/><stop offset="1" stop-color="#FF6518"/></linearGradient><linearGradient id="paint1_linear_1648_445" x1=".5" y1=".5" x2="53.5" y2="25.5" gradientUnits="userSpaceOnUse"><stop stop-color="#47CF3E"/><stop offset="1" stop-color="#3BB610"/></linearGradient></defs></svg>