<svg width="24" height="24" fill="none" xmlns="http://www.w3.org/2000/svg"><path d="M12.041 3.052c-3.577 0-6.592 2.479-7.563 5.865-.868.523-1.375 1.53-1.375 2.708 0 1.708 1.042 3.094 2.75 3.094.38 0 .688-.308.688-.688V9.218c0-.316-.225-.564-.516-.644 1.004-2.464 3.321-4.19 6.016-4.19s5.012 1.726 6.016 4.19c-.29.08-.515.328-.515.644v4.813c0 .38.307.688.687.688.16 0 .303-.02.451-.043-.222 1.283-.76 2.239-1.31 2.9a5.045 5.045 0 0 1-.967.903 2.361 2.361 0 0 1-.322.193l-.086.043h-1.29c-.247-.718-1.035-1.246-1.976-1.246-1.14 0-2.063.77-2.063 1.719 0 .95.924 1.719 2.063 1.719.941 0 1.729-.529 1.977-1.247h1.353c.233 0 .292-.061.43-.128s.3-.16.473-.28c.344-.24.76-.591 1.16-1.074.725-.873 1.4-2.17 1.568-3.91.811-.539 1.29-1.507 1.29-2.643 0-1.178-.508-2.185-1.376-2.708-.97-3.386-3.985-5.865-7.563-5.865Z" fill="#333"/></svg>