<svg width="24" height="24" fill="none" xmlns="http://www.w3.org/2000/svg"><path fill-rule="evenodd" clip-rule="evenodd" d="m13.357 3.777 1.925 3.393a1.56 1.56 0 0 0 1.044.759l3.822.782a1.56 1.56 0 0 1 .839 2.581l-2.632 2.88a1.56 1.56 0 0 0-.4 1.227l.438 3.877a1.56 1.56 0 0 1-2.196 1.595l-3.552-1.614a1.56 1.56 0 0 0-1.29 0l-3.552 1.614a1.56 1.56 0 0 1-2.196-1.595l.437-3.877a1.56 1.56 0 0 0-.399-1.227l-2.632-2.88a1.56 1.56 0 0 1 .839-2.58l3.822-.783a1.56 1.56 0 0 0 1.044-.759l1.925-3.393a1.56 1.56 0 0 1 2.714 0ZM12 4.79 10.18 8a3.24 3.24 0 0 1-2.17 1.575l-3.614.74 2.49 2.723c.63.69.932 1.62.828 2.55L7.3 19.253l3.36-1.526a3.24 3.24 0 0 1 2.68 0l3.36 1.526-.414-3.667a3.24 3.24 0 0 1 .828-2.549l2.49-2.723-3.615-.74a3.24 3.24 0 0 1-2.168-1.576L12 4.79Z" fill="#333"/></svg>