<svg width="24" height="24" fill="none" xmlns="http://www.w3.org/2000/svg"><path fill-rule="evenodd" clip-rule="evenodd" d="M20.424 6.33c.182.215.273.491.334.705.03.123.06.246.03.46 0 .046-.008.092-.015.138-.008.046-.015.092-.015.138v.092l-.728 7.324a.45.45 0 0 0-.028.092c-.012.05-.027.112-.063.184-.03.061-.09.184-.151.276a3.977 3.977 0 0 1-.455.551c-.303.307-.788.49-1.303.49H7.97c-.576 0-1.091-.183-1.394-.49-.303-.306-.485-.643-.606-1.103a8.381 8.381 0 0 1-.09-.582 21.66 21.66 0 0 1-.183-1.287c-.121-1.042-.303-2.39-.485-3.708a289.213 289.213 0 0 1-.485-3.616l-.182-1.44H2.091c-.303 0-.606-.123-.818-.369a.806.806 0 0 1-.152-.275.955.955 0 0 1-.06-.337c0-.154.03-.276.06-.399.03-.046.053-.084.076-.122.023-.039.045-.077.076-.123.242-.245.545-.398.848-.398h2.424c.394.03.788.153 1.091.46.303.306.485.704.546 1.133l.303 1.808h13a1.287 1.287 0 0 1 .757.243c.042.026.072.045.091.064l.091.092Zm-2.394 8.796a.23.23 0 0 0 .152-.061.28.28 0 0 0 .09-.215l.789-7.232H6.727l.97 7.232c0 .092.03.153.09.215.031.03.092.06.152.06H18.03Zm-.97 6.374c.837 0 1.515-.686 1.515-1.532s-.678-1.532-1.515-1.532c-.837 0-1.515.686-1.515 1.532s.678 1.532 1.515 1.532Zm-8.788 0c.837 0 1.515-.686 1.515-1.532s-.678-1.532-1.515-1.532c-.837 0-1.515.686-1.515 1.532S7.435 21.5 8.272 21.5Z" fill="#333"/></svg>