<svg width="31" height="14" fill="none" xmlns="http://www.w3.org/2000/svg"><path d="M4.616 8.835c-.064-.418-.224-1.015-.384-1.642L2.949 13.97H1.38l1.09-5.731c-.642 1.194-1.283 2.298-1.956 3.075C.449 10.805.193 9.999 0 9.52c1.122-1.164 2.308-3.253 3.045-5.044H1.282l.32-1.642h1.86L3.975.059h1.57l-.512 2.776H6.54l-.32 1.642H4.711l-.096.447c.289.508 1.026 2.27 1.186 2.717L4.616 8.835Z" fill="#E93E28"/><path d="M11.702 5.85c.096.448.192.986.16 1.374H15.1l-.289 1.433h-4.808a9.014 9.014 0 0 1-.321.985h4.456s-.096.388-.16.597c-.513 1.88-.866 2.776-1.315 3.134-.352.329-.769.418-1.218.478-.417.03-1.09.06-1.86.03.065-.448 0-1.075-.192-1.463a14 14 0 0 0 1.411.06c.224 0 .353 0 .513-.12.16-.15.353-.507.609-1.283H9.041C8.336 12.328 7.18 13.313 5.29 14c-.13-.388-.482-1.015-.834-1.313 2.436-.806 3.205-2.15 3.75-4.03H6.06l.288-1.433h3.59c0-.358-.032-.776-.064-1.105l1.828-.268Z" fill="#000"/><path d="M14.01 4.21c.256-.389.513-.807.801-1.255l-1.218-.179h2.34l.257-1.403h-3.334c0-.448-.032-.955-.128-1.373l-1.796.209c.032.358.064.776.064 1.164H7.438l-.256 1.403H9.81l-1.378.21c.064.357.128.805.128 1.223H6.605l-.481 2.597h1.73l.225-1.224h5.835l-.225 1.194h1.796l.48-2.567H14.01Zm-1.731 0h-1.86a11.724 11.724 0 0 0-.192-1.434h2.757c-.224.448-.449.985-.705 1.433ZM24.62 9.88l.193-.955h5L31 2.627h-2.276c.545-.568 1.154-1.195 1.699-1.851l-2.02-.567c-.448.746-1.186 1.671-1.827 2.418h-3.462l.737-.299c-.192-.597-.737-1.522-1.25-2.15l-1.763.628c.352.537.77 1.224.962 1.79h-2.565l-1.186 6.3h4.776l-.192.955h-6.155l-.32 1.641h6.187l-.45 2.418h1.956l.45-2.418h6.282l.32-1.641h-6.282v.03Zm1.09-5.82h3.014l-.16 1.014H25.55l.16-1.015Zm-.448 2.358h3.013l-.192 1.015h-3.014l.193-1.015Zm-2.148 1.015h-2.917l.192-1.015h2.917l-.192 1.015Zm.449-2.359h-2.917l.192-1.015h2.917l-.192 1.015Z" fill="#000"/></svg>