<svg width="16" height="16" fill="none" xmlns="http://www.w3.org/2000/svg"><g clip-path="url('#clip0_1648_43')" fill="#fff"><path d="M14.348 7.517a.842.842 0 0 0-.84.84v4.224c0 .468-.384.84-.84.84h-9.31a.842.842 0 0 1-.84-.84V8.357a.842.842 0 0 0-.84-.84.85.85 0 0 0-.84.84v4.644c0 1.163.947 2.111 2.111 2.111h10.14a2.115 2.115 0 0 0 2.111-2.111V8.357a.853.853 0 0 0-.852-.84Z"/><path d="M5.445 4.721 7.16 3.246v7.223c0 .468.384.84.84.84a.85.85 0 0 0 .84-.84V3.426l1.511 1.295a.854.854 0 0 0 1.212 0 .854.854 0 0 0 0-1.211L8.613.99a.862.862 0 0 0-.816-.228.824.824 0 0 0-.612.252L4.257 3.522a.862.862 0 0 0 0 1.2.847.847 0 0 0 1.188 0Z"/></g><defs><clipPath id="clip0_1648_43"><path fill="#fff" d="M0 0h16v16H0z"/></clipPath></defs></svg>