<svg width="39" height="33" fill="none" xmlns="http://www.w3.org/2000/svg"><rect y="6.999" width="26" height="26" rx="13" fill="url('#paint0_linear_1648_138')"/><g clip-path="url('#clip0_1648_138')" fill="#fff"><path d="M10.18 27.09c.593 0 1.074-.49 1.074-1.096 0-.605-.481-1.096-1.075-1.096-.593 0-1.074.49-1.074 1.096 0 .605.48 1.096 1.074 1.096ZM16.41 27.09c.594 0 1.075-.49 1.075-1.096 0-.605-.481-1.096-1.075-1.096-.593 0-1.074.49-1.074 1.096 0 .605.481 1.096 1.074 1.096ZM19.032 16.743c-.043-.153-.107-.35-.236-.504l-.064-.066c-.022-.022-.065-.043-.13-.087a.906.906 0 0 0-.472-.132H8.912l-.215-1.293a1.431 1.431 0 0 0-.387-.811c-.215-.22-.494-.307-.774-.329H5.819c-.215 0-.43.11-.602.285-.043.066-.065.11-.108.175-.021.088-.043.176-.043.285a.69.69 0 0 0 .043.241.58.58 0 0 0 .108.198.76.76 0 0 0 .58.263h1.74l.13 1.03c.085.702.214 1.644.343 2.587.13.942.258 1.907.344 2.652.043.373.086.68.129.92.043.33.064.395.064.417.086.33.215.57.43.79.215.219.58.35.989.35h7.134c.365 0 .709-.131.924-.35a2.85 2.85 0 0 0 .322-.395c.043-.066.086-.154.107-.198.043-.087.043-.153.065-.197l.515-5.239v-.066c0-.065.022-.131.022-.197a.762.762 0 0 0-.022-.329Zm-1.826 5.744a.162.162 0 0 1-.107.043H9.943a.163.163 0 0 1-.107-.043.201.201 0 0 1-.065-.154l-.687-5.173h8.745l-.559 5.173c0 .066-.021.11-.064.154Z"/></g><path d="M24 1.249a7.75 7.75 0 0 0-7.75 7.75v4a3.75 3.75 0 0 0 3.75 3.75h10a7.75 7.75 0 0 0 0-15.5h-6Z" fill="#FF4A4A" stroke="#fff" stroke-width="1.5"/><path d="M23.92 5.219c.87 0 1.54.31 2 .94.46.62.69 1.47.69 2.57 0 1.16-.25 2.11-.73 2.83-.49.72-1.15 1.08-1.97 1.08-1.41 0-2.2-.65-2.37-1.95h1.14c.14.66.55.99 1.24.99.47 0 .85-.24 1.14-.7.27-.44.41-.99.41-1.65v-.09h-.05c-.21.29-.46.51-.75.65-.28.13-.6.2-.96.2-.7 0-1.27-.23-1.69-.69-.42-.44-.62-1.01-.62-1.71 0-.72.24-1.31.72-1.77.48-.47 1.08-.7 1.8-.7Zm.04.97c-.42 0-.76.14-1.02.42-.26.28-.38.64-.38 1.08 0 .44.12.79.38 1.05.24.26.58.4 1.02.4.43 0 .77-.14 1.02-.4.24-.27.37-.63.37-1.09 0-.46-.13-.81-.39-1.07s-.6-.39-1-.39Zm5.956-.97c.87 0 1.54.31 2 .94.46.62.69 1.47.69 2.57 0 1.16-.25 2.11-.73 2.83-.49.72-1.15 1.08-1.97 1.08-1.41 0-2.2-.65-2.37-1.95h1.14c.14.66.55.99 1.24.99.47 0 .85-.24 1.14-.7.27-.44.41-.99.41-1.65v-.09h-.05c-.21.29-.46.51-.75.65-.28.13-.6.2-.96.2-.7 0-1.27-.23-1.69-.69-.42-.44-.62-1.01-.62-1.71 0-.72.24-1.31.72-1.77.48-.47 1.08-.7 1.8-.7Zm.04.97c-.42 0-.76.14-1.02.42-.26.28-.38.64-.38 1.08 0 .44.12.79.38 1.05.24.26.58.4 1.02.4.43 0 .77-.14 1.02-.4.24-.27.37-.63.37-1.09 0-.46-.13-.81-.39-1.07s-.6-.39-1-.39Z" fill="#fff"/><defs><linearGradient id="paint0_linear_1648_138" x1="-3.188" y1="8.422" x2="31.591" y2="20.605" gradientUnits="userSpaceOnUse"><stop stop-color="#FDAF17"/><stop offset="1" stop-color="#FB561C"/></linearGradient><clipPath id="clip0_1648_138"><path fill="#fff" transform="translate(5.023 13.499)" d="M0 0h14.182v13.591H0z"/></clipPath></defs></svg>